<?xml version="1.0" encoding="utf-8"?>
<!-- Generator: Adobe Illustrator 24.1.2, SVG Export Plug-In . SVG Version: 6.00 Build 0)  -->
<svg version="1.1" id="Layer_1" xmlns="http://www.w3.org/2000/svg" xmlns:xlink="http://www.w3.org/1999/xlink" x="0px" y="0px"
	 viewBox="0 0 668.6 647.4" style="enable-background:new 0 0 668.6 647.4;" xml:space="preserve">
<style type="text/css">
	.st0{fill-rule:evenodd;clip-rule:evenodd;fill:#FBFBFB;stroke:#FBFBFB;stroke-width:0.7246;}
	.st1{fill-rule:evenodd;clip-rule:evenodd;fill:#FBFBFB;stroke:#FBFBFB;}
	.st2{fill-rule:evenodd;clip-rule:evenodd;fill:#0B7647;}
	.st3{fill-rule:evenodd;clip-rule:evenodd;fill:#D10E20;}
	.st4{fill-rule:evenodd;clip-rule:evenodd;fill:#040405;}
</style>
<rect x="224.4" y="246.1" class="st0" width="342" height="199"/>
<path class="st1" d="M-225.6,311.9v540l540.3-0.3l540.3-0.3l0.3-539.8l0.3-539.8h-1081V311.9 M-225.1,312.4
	c0,297,0.1,418.4,0.3,269.7s0.1-391.7,0-540S-225.1,15.4-225.1,312.4 M-156.6,311.9v471h942v-942h-942V311.9 M344.9,7.9
	c-18.5,1.4-61.7,10.2-76,15.5c-3.9,1.4-10.6,3.9-15,5.5c-31.5,11.3-78.1,41.9-106,69.5c-45.5,45.1-83.6,128.4-90.5,198.3
	c-1.3,13.1-1.3,55.9,0,67.7c6.4,58.6,25.2,107.2,55.2,142.9c3.2,3.8,5.8,7.5,5.8,8.3c0,0.7,0.8,1.3,1.9,1.3s5.6,3.7,10.3,8.1
	c21,20.4,41.5,34.5,57.1,39.4l5.7,1.8l5.4-2.6c13.2-6.5,25.1-23.9,21.2-31c-0.5-0.9-6.7-7.5-13.9-14.9
	c-23.9-24.4-36.1-42.2-49.6-72.3c-32.7-73-31.3-148.1,4.1-219.5c36.5-73.6,100.9-123.7,175-136c15.7-2.6,19.8-3,42-3.6
	c65.1-1.8,122.1,18,165.1,57.2c9,8.2,17.7,10.5,25.7,6.7c7.2-3.4,24.5-22.3,28.3-30.9c5.2-11.9-0.2-21.2-24.7-42.4
	c-9.9-8.5-28.1-21.8-34.2-24.9c-2.6-1.3-7.1-3.9-9.9-5.7c-4.5-2.9-24.7-12.9-31.4-15.6c-16.6-6.6-30.8-11.2-46.5-15.1
	C421,8.3,379.1,5.3,344.9,7.9 M373.4,147.5c-47,3.3-89.8,23.4-126,59.2c-17,16.8-34.9,41.5-42.7,59.1c-16,35.9-21.2,59.4-21.2,96
	c0,32,4.5,53.7,17.6,85.8c6.9,16.9,5.9,15.9,13.5,13.4c6.1-2,25.2-5.4,48.8-8.6c6.3-0.9,11.7-1.8,12-2.1c0.3-0.3,0.4-20,0.3-43.7
	c-0.2-25.6,0.1-44.4,0.7-46.2c0.6-2,1,12.5,1,43.9l0.1,46.9l5.8-0.7c8.2-1,9.4-1.9,5.6-4.1l-3.1-1.8l-0.6-46.5l-0.6-46.5l2.7-3.3
	c1.5-1.8,2.9-3.3,3.3-3.3c0.3,0,0.9,7,1.2,15.6c0.4,10.5,1,15.9,1.8,16.4c0.8,0.5,1.1,4.4,1,12.8c-0.2,12.1,0.8,16.8,3.3,15.8
	c1.2-0.4,1.2,8.3,0.4,35.6c-0.2,7.3-0.1,7.8,1.8,7.5c2.3-0.3,3.8-16.3,3.3-34.8l-0.3-9.5l2.6-0.1c5.6-0.2,5.9-0.7,5.9-9.8
	c0-6.6,0.3-8.6,1.5-9c1.3-0.5,1.5,1,1.5,9.6c0,5.9-0.4,9.7-0.9,8.9c-1.6-2.5-2.2,4.9-2.1,25c0.1,20.3,0.2,21.1,2.6,20.2
	c1.1-0.4,1.4-4.4,1.4-20.9c0-19.3,0.1-20.4,1.9-20.4c2.9,0,3-1.3,3.3-48.8l0.3-44.3l8.2-8.7l8.2-8.7l4.8,1.3c2.6,0.7,8.1,3,12.2,5
	l7.5,3.8l-0.2,16.8c-0.2,17.6-0.5,19.3-3,21.3c-1.4,1.1-1.4,1.2,0.2,1.3c1.6,0,1.8,3,1.8,47.3c0,26,0.4,48.1,0.8,49.2
	c0.7,1.7,2.1,1.9,11.7,2.3c6,0.2,15.9,0.7,21.9,1.1l11,0.7l-11,0.8c-6,0.4-14.8,1.4-19.5,2.3c-8.5,1.5-27,3.7-47.3,5.5
	c-44,4-75.4,13.4-90,26.9c-24.1,22.3-12.8,49.2,28.3,67.4c14.5,6.4,47.9,16.4,67.5,20.2c4.4,0.8,15.9,3.1,25.5,5.1
	c9.6,1.9,24,4.7,32,6s24.8,4.5,37.5,6.9c12.7,2.4,24.8,4.7,27,5s10,1.7,17.3,3.1c53.5,9.9,93.8,12.6,110.3,7.4
	c9-2.8,9.7-2.7,10.5,1.6c0.6,3,0.3,4-1.7,6l-2.4,2.4l-46,0.6c-45,0.6-93.5-0.6-139.5-3.6c-8.5-0.5-26.3-1.7-39.5-2.5
	c-22.3-1.3-52-4-55.5-5c-0.8-0.2-12.8-2.1-26.5-4.1c-33.3-4.8-64.5-11.5-85-18.1c-30-9.7-54.7-25.8-79.2-51.7l-5.2-5.5l-14.3,5.3
	c-102.4,37.9-126.5,67.8-70.3,87.4c30.8,10.8,84.2,19.8,157.6,26.5c74.4,6.8,208.1,6.6,286.6-0.4c99.2-8.9,151-18.3,179-32.4
	c17.6-8.9,21.5-18.5,11.5-28.5c-11.6-11.6-40.8-22.6-85.6-32.3c-12.7-2.7-24.6-5.4-26.5-5.9s-9.3-1.9-16.5-3
	c-7.2-1.2-18.4-3.2-25-4.5c-12-2.4-37.8-6.9-57.5-10c-5.8-0.9-17-2.9-25-4.5s-18.8-3.6-24-4.5c-37.8-6.5-54.9-16.4-47.1-27.4
	c5.2-7.3,45.9-18.1,77.1-20.5c4.7-0.4,15.7-1.5,24.5-2.6c28.2-3.4,99.9-11,104-11c3.5,0,19-30.3,24.9-48.5
	c26.9-83.3-3.8-168.7-80.1-223.3C471.2,158.6,419.2,144.3,373.4,147.5 M334.6,263.5c-4.2,2.1-8.2,7.9-8.2,11.8
	c0,2.7,2,14.6,2.6,15.4c0.1,0.2,2.8-0.8,5.8-2.2l5.6-2.6l6.2,3.1c3.4,1.7,10.5,5.7,15.7,8.8c15.2,9.1,23.2,13.2,28.2,14.6l4.7,1.3
	l-0.7-2.7c-1.7-6.5-0.8-16.7,1.8-21.8l2.6-5l-13.6-5.3c-7.5-2.9-19.2-7.8-26.1-10.7C345.2,262,339.5,261,334.6,263.5 M295.6,309.1
	c-13.8,15-27.1,29.5-29.7,32.3c-7.8,8.3-8.5,9.4-8.5,14.1c0,3.5,0.5,4.7,2.5,5.9c3.7,2.4,5.6,1.5,10-4.7c6-8.3,16.8-20.8,29.7-34.4
	c12.8-13.4,21-22.9,22.7-26.2c1.9-3.7,1.3-14.3-0.8-14.3C321,281.9,309.4,294.1,295.6,309.1 M338.7,302.1
	c-0.4,0.7-0.7,12.1-0.6,25.3l0.2,24l-3.6-0.4c-3-0.4-3.5-0.2-3,1.2c0.5,1.2,0,1.6-1.6,1.6c-4.1,0-6.5,1.1-7.6,3.6
	c-1.8,4-1.5,78.4,0.3,82.9c1.9,4.6,5.4,6.2,10.6,4.8c2.2-0.6,4.2-0.7,4.5-0.2c0.3,0.5,2.3,0.9,4.4,0.9c6.6,0,6.4,1,6.8-50.4
	l0.3-45.9l-2.6,0.6l-2.6,0.6v-23.8c0-24-0.3-26.2-3.6-26.2C340.1,300.9,339.2,301.4,338.7,302.1 M367.1,318.1
	c-1.3,16.1-0.9,23.9,1.1,23.4c1-0.2,8.4-2.2,16.5-4.3l14.8-3.8v-6.2c0-6.2,0-6.2-3.2-6.9c-1.8-0.4-5.1-1.5-7.5-2.5l-4.3-1.8l0,2.2
	c0,4.5-1.2,6.7-3.5,6.7c-2.1,0-2.2-0.4-1.8-4.8l0.5-4.8l-5.1-2.7C367.6,308.9,367.8,308.8,367.1,318.1 M487.4,312.8
	c3,1,12.6,4.4,21.3,7.5c15.4,5.5,18.9,6.6,15.6,4.6c-2.6-1.5-35.1-12.7-38.9-13.3C483.2,311.2,484,311.6,487.4,312.8 M312.4,325.4
	c-1.2,1.9-3,4.1-4.1,4.9c-1.9,1.3-1.9,1.4-0.1,1.9c2.5,0.7,3.2,6.5,3.2,28.5c0,15.8,0.2,17.3,1.8,17.2c1.6,0,1.8-2,1.8-28
	c0-15.4-0.1-28-0.2-28C314.6,321.9,313.6,323.4,312.4,325.4 M404.4,326.2c0,1.4-0.3,3.2-0.6,4.1c-0.5,1.3,0.3,1.6,5,1.6h5.6
	l0.2,24.8c0.1,13.6,0,39.5-0.1,57.5l-0.3,32.8h6.1l-0.5-52.8c-0.3-30.3-0.1-55.6,0.4-59.4l0.9-6.7l-6.1-1.6
	C403.6,323.4,404.4,323.4,404.4,326.2 M429.9,332.2c0.3,1.7,1.2,9.4,2.1,17.1c0.9,7.7,2.2,18,3,23s2.1,22.3,3,38.5s1.7,30.1,2,30.8
	c0.8,2.2,12.5,1.7,12.5-0.5c-0.1-17.2-4.5-63.6-7.7-81.8c-0.9-5-1.9-12.8-2.2-17.4c-0.7-9.2-0.4-8.8-8.4-11.3l-4.8-1.5L429.9,332.2
	 M299.2,337.6c-4.9,5.1-5.3,7.3-3,18.4c1.1,5.2,2.3,12.3,2.7,15.7c0.7,6,0.8,6.3,3.6,6.3h2.9l-0.5-8.3c-0.3-4.5-0.8-14.5-1.2-22.1
	l-0.7-13.8L299.2,337.6 M447.7,347c0.3,7.4,1.5,20.6,2.7,29.4c2,15.8,3.4,31.7,4.6,54.8l0.6,11.8h6.8V411c0-17.5-0.3-41.3-0.7-52.9
	l-0.7-21l-5.6-1.3c-3.1-0.7-6.2-1.5-7-1.8C447.3,333.6,447.2,335.7,447.7,347 M467.7,374.3c0.4,19.3,0.7,42.4,0.7,51.4l0,16.3h14.7
	l0.6-6.1c0.4-3.4,0.6-10.2,0.6-15.1c0-8.9,0-9-2.4-8.4c-4.4,1.1-4.7-0.6-4.4-23.5l0.3-21.4l5.5,0.2c3,0.1,10.6,1,16.8,1.9l11.3,1.7
	l-0.3,20.6l-0.3,20.6l-6.3,0.3c-6,0.3-6.3,0.4-5.8,2.5c0.3,1.2,1.3,7.3,2.3,13.5l1.8,11.3h4.8c5.8,0,5.1,4.6,5.2-37.7
	c0.1-29.8,0.4-34.8,2.3-33c0.4,0.4,1,16.2,1.3,35.1s0.9,34.7,1.2,35c0.3,0.3,3.4,0.2,6.9-0.2l6.4-0.8v-83.8l-7.4-1.8
	c-9-2.2-9.1-2.1-9.1,5.2c0,6.1-0.8,7-4,5c-1-0.6-1.6-3.2-1.9-7.9c-0.4-6.6-0.5-7-3-7.5c-3.3-0.6-3-1.1-3.8,6.2
	c-0.6,5.6-0.9,6.2-2.8,5.9c-1.9-0.3-2.1-0.8-1.8-6.5c0.4-6.9,0.2-7.1-7.6-8.6l-3.3-0.6v11.2l-2.8-0.7c-3.9-1-4.6-2-3.3-4.5
	c2.7-5,1.1-7.2-6.4-9l-6.9-1.7L467.7,374.3 M558.3,343c-2.2,4,1.8,12.9,5.7,12.9c2.5,0,5.3-3.9,5.3-7.4
	C569.4,342.3,560.9,338.2,558.3,343 M426.8,395.6c0.4,46.2,0.4,46.2,5.3,46.2h2.5l-0.6-8.3c-0.3-4.5-1.3-18.6-2.2-31.3
	c-0.9-12.7-2.4-29.1-3.5-36.5l-1.9-13.5L426.8,395.6 M538.3,396.1c0.2,22.1,0.5,40.4,0.7,40.6c0.6,0.6,11.9-1.9,12.9-2.9
	c1.1-1.1,2.2-68.3,1.1-72.5c-1-3.9-2.3-2.8-3.1,2.5c-1.2,8.5-3.9,7.9-5-1.1c-0.7-5.6-1.7-6.8-6-6.8
	C538.2,355.9,538,369.6,538.3,396.1 M488.4,427.4v14.5h4c5.3,0,5.5-0.8,4-13.8c-1.7-15.1-1.8-15.2-5.2-15.2h-2.9V427.4 M354.4,444.4
	c0,0.8,0.5,1.5,1,1.5s1-0.7,1-1.5s-0.5-1.5-1-1.5S354.4,443.5,354.4,444.4 M428.4,444.9c0.8,0.5,2.6,0.9,4,0.9l2.5-0.1l-2.5-0.8
	C428.6,443.6,426.5,443.6,428.4,444.9"/>
<path class="st2" d="M343.9,8.9c-33.4,2.8-73.5,13-100.9,25.7c-65.4,30.2-111.7,72.5-142.1,129.8c-2.6,5-5.1,9.5-5.5,10
	c-1.4,1.9-11.3,24.1-16.5,37C50,283.7,49.4,373.9,77.5,445.9c8.2,21.1,22.2,44.9,35.3,60.4c4.3,5,6.3,8.2,5.9,9.2
	c-0.5,1.2-0.1,1.4,1.4,0.9c1.6-0.5,4,1.4,11.7,8.9c20,19.6,46.3,37.2,58.9,39.2c12.3,2,33.8-23.1,27.8-32.5c-0.5-0.7-6.5-7-13.3-14
	c-28.5-28.9-45-56-59.9-98.3c-18.1-51.5-17.1-115.3,2.7-167.2c35.1-92,106.6-152.5,194.6-164.6c76.1-10.5,140.8,6.1,194.6,50
	c21,17.1,26.7,17.4,41.4,2.5c25.8-26,25.3-33.7-3.4-59.3c-43.3-38.6-101.8-64.6-159.3-70.9C398.7,8.4,358.6,7.6,343.9,8.9
	 M361.1,149.4c-42.8,5.8-80.2,25-113.8,58.4c-56.6,56.3-77.4,138.1-54.5,214.8c3.1,10.3,13.5,37.5,15,39c0.2,0.2,5.8-0.9,12.3-2.5
	c6.5-1.6,17.7-3.8,24.8-4.7c7.1-1,16.8-2.2,21.5-2.9l8.5-1.1l0.5-46.5c0.3-28.4,0.9-46.5,1.5-46.5c0.6,0,0.8,17.5,0.7,46.3
	l-0.3,46.3l4.3,0c6.5,0,9.1-0.9,7.7-2.6c-0.6-0.8-1.8-1.4-2.5-1.4c-2.2,0-2.3-2.1-2.7-49.6l-0.4-45.1l3.3-3.8
	c4.4-5.1,4.6-4.7,4.9,10.5c0.3,14.3,1,19,2.8,19c0.8,0,1.2,3.9,1.2,13.8v13.8l6.5-0.4c8.5-0.5,8,0.2,8-10.7c0-9.4,0-9.4,2.5-9.4h2.5
	l-0.7,11.8c-0.4,6.5-1,11.9-1.5,12.1c-1.5,0.6-1.1,41.4,0.4,40.9c0.9-0.3,1.3-5.6,1.5-21.1c0.3-19.8,0.3-20.7,2.3-20.7
	c1.9,0,2-0.8,2.1-23.8c0-13.1,0.3-33.9,0.5-46.2l0.4-22.4l8.3-8.9c9.8-10.5,9.1-10.4,24.5-3l9.4,4.5l-0.7,18.7
	c-0.6,14.8-1,18.9-2.2,19.8c-0.8,0.6-1,1.3-0.5,1.5c0.7,0.2,1.2,16.7,1.5,47.5c0.5,50.3,0.9,54.6,5.3,50.3c0.8-0.8,4.4-0.8,12.5,0
	c6.3,0.6,14.8,1.1,19.1,1.1c10.1,0,10.8,1.5,1,2.4c-4.2,0.4-15.2,1.8-24.2,3.1c-9.1,1.3-25.7,3.4-37,4.5
	c-59.3,5.9-85.1,13.5-101.4,29.6c-9.1,9.1-11.8,23.1-6.5,34.4c10.4,22.4,49,38.9,125.9,54c14,2.8,57.1,10.8,69.5,12.9
	c2.8,0.5,11.1,2,18.5,3.4c41.2,7.8,86.1,14.4,108.5,16.1c9.6,0.7,24.6-1,32.2-3.6c7.4-2.5,9.1-2.4,10.3,0.7c1.4,3.8,1.2,5-1.5,8.2
	l-2.5,3l-31.3,0.7c-40.9,0.9-118.5-1.2-166.3-4.4c-58.8-4-70.1-5-86.5-7.5c-5.2-0.8-17.6-2.6-27.5-4c-9.9-1.4-29.3-4.9-43-7.9
	c-55.8-12.1-80.6-24.4-111.9-55.8l-10.9-10.9L96,531.2C26.3,557.5-6.1,579.8,0.9,596.6c12.2,29.1,148.1,50.8,318.5,50.8
	c119.3,0,221.6-8.1,288-22.9c15.8-3.5,31.4-8.5,42.8-13.6c19.3-8.7,23.6-20.7,10.9-30.4c-23.8-18.2-64.4-28.8-196.7-51.5
	c-78-13.4-97.8-18.2-106.1-25.7c-10.9-9.8-2.8-18.7,23.1-25.3c19.4-4.9,43.4-8.3,111.5-15.5c42.1-4.5,61.9-6.6,66-7.1
	c4.9-0.6,7.7-4.4,16.8-22.9c14.2-28.9,19.2-50.6,19.1-84c0-26.4-1.5-36.4-8.7-58.5C556.2,197.1,458.5,136.1,361.1,149.4
	 M334.9,262.9c-5.9,3-9.8,8.6-9.1,13c0.3,1.9,0.8,5.9,1.2,8.8c0.9,6.7,1.3,6.9,8.3,4.3l5.8-2.2l5.4,2.7c3,1.5,10.4,5.7,16.4,9.4
	c13.9,8.5,20.5,11.8,27.7,14l5.7,1.7l-0.7-3.1c-1.7-7.8-0.8-18.9,2-23.3l2.7-4.1l-3.7-1.5c-2-0.8-10.5-4.2-18.8-7.5
	c-8.3-3.3-19.4-7.9-24.6-10.1C342.3,260.3,340.5,260.1,334.9,262.9 M311.4,291.1c-21.1,23.2-28,30.8-39.4,42.7
	c-13.4,14.2-15.6,17.2-15.6,21.8c0,7.7,8.3,9.9,12.4,3.4c3.6-5.7,18.4-23,30.5-35.6c22.9-23.9,26.3-29.1,24.5-37.6
	C322.5,279.5,321.6,279.9,311.4,291.1 M338.9,304.1c-0.3,1.3-0.5,12.6-0.3,25.1l0.3,22.8l-2.3-0.6c-2.7-0.7-5,0.4-3.2,1.5
	c0.7,0.4-1.1,1-3.9,1.4c-3.5,0.5-5.4,1.3-6.1,2.6c-1.5,2.9-1.4,80.2,0.2,83.6c1.9,4.2,5.8,5.7,10.5,4.1c3.4-1.2,4-1.2,4.8,0.1
	c1.4,2.2,7.4,0.7,8.4-2.2c0.5-1.2,1-22.3,1.2-46.9l0.3-44.7l-2.7,0.4l-2.7,0.4l-0.3-24.6c-0.2-22.3-0.4-24.6-2-24.9
	C340.1,301.9,339.3,302.6,338.9,304.1 M473.4,308.5c5.2,1.9,15.3,5.5,22.5,8s20.6,7.3,29.8,10.6c17.2,6.2,24.4,7.5,9.5,1.8
	c-4.6-1.8-9.9-4-11.8-5c-6.8-3.4-55.5-19.2-58.7-19C464.3,304.9,468.2,306.5,473.4,308.5 M366.4,315.2c0,3.5-0.3,11.2-0.7,17.1
	l-0.7,10.8l3.4-0.7c5.4-1.2,29.9-8.2,30.4-8.7c1.4-1.4,1.7-12.8,0.4-13.2c-2.7-0.8-5.3-1.7-8-2.5c-8.3-2.7-7.8-2.8-8.1,2.1
	c-0.5,7-3.8,6.6-3.8-0.5v-5.4l-5.5-2.7C366.5,307.9,366.4,308,366.4,315.2 M314.4,321.6c0,0.4-1.8,2.8-4.1,5.2
	c-3.8,4.2-4,4.5-2.3,5.8c1.7,1.2,1.9,3.4,2.1,23.3l0.3,22h4.9v-28.5c0-15.7-0.2-28.5-0.5-28.5S314.4,321.2,314.4,321.6 M403.4,327.8
	v5l5.3-0.2l5.3-0.2v114.5h7l-0.3-55.2c-0.2-31.5,0.1-57,0.6-59.5c0.9-4.2,0.8-4.4-1.7-4.9c-1.4-0.3-5.3-1.4-8.6-2.5
	C403.1,322.3,403.4,322.1,403.4,327.8 M429.4,330.9c0,2.3,1.8,17.8,5,43c1.1,8.5,2.4,25.7,3,38.2c1.5,31.5,1.4,31.2,6.9,31.6
	c8.2,0.6,8.6,0.2,8.3-7.5c-0.9-23.1-2.8-44.3-6.8-72.8c-1.3-9.3-2.7-20.2-3-24.2l-0.7-7.2l-4.6-1c-2.5-0.5-5.4-1.3-6.4-1.7
	C429.8,328.8,429.4,329.2,429.4,330.9 M299.2,336.6c-5.5,5.5-6.1,9.5-3.3,21.4c0.8,3.5,1.8,9.3,2.1,13.1l0.7,6.8h3.7
	c3.3,0,3.7-0.2,3.3-2.3c-0.2-1.2-0.7-11.6-1.1-23l-0.7-20.8L299.2,336.6 M446.8,346.4c0.4,7.1,1.6,19,2.6,26.4
	c1.8,12.6,3.1,29.7,4.6,58.2c0.6,12.7,1.2,13.7,7.3,12.2l2.4-0.6l-0.8-49.1c-0.4-27-0.9-50.7-1-52.6c-0.2-3.8-2.6-5.2-11.7-6.7
	l-4.1-0.7L446.8,346.4 M467.2,385.6c0.1,25.7,0.5,49.1,0.8,52l0.6,5.3h7.4c8.9,0,8.3,1.2,8.7-18l0.3-13.5l-3.3,0.3l-3.3,0.3v-44.4
	l6.8,0.7c3.7,0.4,11.1,1.4,16.5,2.3l9.8,1.6v18.4c0,22.1,0,22.3-7.9,22.3h-5.8l1.8,10.8c1,5.9,1.8,12.2,1.8,14l0,3.2h5.4
	c3.3,0,5.8-0.5,6.3-1.3c0.4-0.7,0.7-16.8,0.6-35.8c-0.1-21.4,0.1-33.7,0.7-32.5c0.5,1.1,1,12.6,1.1,25.5s0.5,28,0.8,33.5l0.6,10
	l5.5-0.3c10-0.6,9.1,4.4,8.8-43.9l-0.3-42.6l-7.9-1.9c-9.3-2.2-8.4-2.7-9.2,5c-1.1,10.1-4.4,8-4.4-2.8c0-6.2-0.7-7-5.6-7
	c-2,0-2.4,0.5-2.4,2.8c0,5.8-1.2,10.1-2.6,9.6c-1-0.4-1.4-2.4-1.4-6.7v-6.2l-5.3-1.7c-7.2-2.3-7-2.4-6.3,3.9c0.6,5.5,0.6,5.6-1.6,5
	c-1.3-0.3-2.5-0.6-2.9-0.6c-0.3,0-0.4-2.5-0.1-5.5c0.4-5.3,0.4-5.5-2.4-6.1c-2.1-0.5-4.3-1-6.4-1.5c-1.9-0.5-4-0.9-4.5-0.9
	C467.2,338.9,467,354.8,467.2,385.6 M558.7,341.1c-3,3.7-1.3,12.6,2.9,14.8c4.5,2.4,9.7-3.8,8.2-9.8
	C568.6,341.4,561.1,338,558.7,341.1 M426.1,351.5c-0.9,0.9-0.9,31.3-0.1,63.4c0.7,26.7,1.1,28,7,28h2.6l-0.6-6.8
	c-0.4-3.7-1.3-17.3-2.2-30.3c-0.8-12.9-2.4-30.3-3.5-38.5C427,350,427.1,350.5,426.1,351.5 M537.4,395.9v41.2l6-0.6
	c10.9-1.1,10,2.7,10-40.1c0-35.7-0.1-37.4-1.9-37.8c-1.6-0.4-2,0.2-2.4,4.4c-0.8,8.4-3.7,7.4-3.7-1.3c0-4.9,0.2-4.7-6.3-6.5
	C537.5,354.8,537.4,357.2,537.4,395.9 M300,406.1c-0.8,2.6-1.3,42.8-0.5,42.8c0.4,0,1.1-0.5,1.5-1c0.9-1.4,2.6-39.6,1.8-41.5
	C302.1,404.5,300.5,404.4,300,406.1 M487.8,413.2c-0.3,0.7-0.4,7.4-0.2,14.8l0.3,13.5l5.3,0.3c4.9,0.3,5.2,0.2,5.2-2
	c0-3-2.9-24.9-3.5-26.6C494.3,411.5,488.5,411.5,487.8,413.2 M426.4,444.3c0,1.2,1.1,1.5,4.7,1.5c5.3,0,4.8-1.4-1-2.4
	C427.2,442.9,426.4,443.1,426.4,444.3"/>
<path class="st3" d="M351.7,9.6c1,0.3,2.5,0.3,3.5,0c1-0.3,0.2-0.5-1.8-0.5S350.7,9.3,351.7,9.6 M143.2,104.6
	C108.4,140.3,73.6,212,62.8,269.9c-8.3,44.6-6,111.6,5,145.1c0.3,0.8,2.4,7.5,4.7,14.8c8.9,28.5,25.9,59.8,41.9,77.4
	c2.8,3,5,6.3,5,7.2c0,1.1,0.5,1.5,1.6,1.1c1.1-0.4,4.6,2.4,11.3,9c21.1,20.9,49,39.3,59.8,39.3c9,0.1,24.1-14,26.9-25.1
	c1-4-1.4-7.7-12.1-18c-15.1-14.6-29.4-32.5-37.9-47.4c-38.4-66.9-47.1-136.7-25.9-207.7c7.7-25.8,30-69.5,42.6-83.3
	c2.6-2.8,2.6-2.6-4.4-10.7c-16.6-19.1-26.9-40.4-30.1-62.2C149.7,99.9,148.5,99.1,143.2,104.6 M371.4,148.8
	c-85.5,7.2-158.4,71.6-181,160.1c-7,27.5-8,65.8-2.3,93.9c3,14.8,16.8,54.7,20.2,58.3c0.4,0.4,2.9,0,5.7-0.8
	c9.7-2.9,22.7-5.5,38.3-7.4c8.6-1.1,17.2-2.2,19-2.5l3.3-0.6v-45c0-43.5,0.3-48.9,3-48.9c0.6,0,1,17.5,1,47v47l2.3-0.1
	c1.2,0,4-0.4,6.3-0.9l4-0.8l-3.3-1.4c-4.3-1.8-4,1.2-4.6-49.8l-0.5-44.4l4.1-4.9c5.3-6.3,5.4-5.9,6,12.6c0.5,14.8,0.9,16.6,4.3,16.6
	c1.2,0,0.3-10.2-1.7-18.5c-0.7-2.8-1.2-7.8-1.3-11.3l-0.1-6.3l5.5-4.6c3-2.5,7.9-7,10.8-9.9c2.9-2.9,5.4-5.3,5.5-5.3
	c0.1,0,0.3,12.8,0.5,28.5l0.2,28.5h-7v-22c0-20.7-0.1-22-1.9-23c-1.4-0.7-2.1-0.7-2.6,0.1c-0.7,1.1,0.2,28.7,1.2,39.1l0.6,5.7
	l-5.4,0.3l-5.4,0.3l-0.3,10c-0.4,13.3,0.2,16.9,2.8,15.5c1.1-0.6,3.1-0.8,4.5-0.4c6.5,1.6,7.4,0.3,7.7-10.3c0.3-9,0.4-9.7,2.3-9.7
	c1.9,0,2,0.8,2.3,11.2c0.2,8.4,0.6,11.3,1.7,11.7c2.4,0.9,2.8-4.6,2.5-35.8c-0.2-16.5-0.2-35.9-0.1-43l0.2-13l8.6-8.9
	c10.2-10.5,10.2-10.6,25.5-3.4l9.6,4.5l-0.4,15.4c-0.6,20.1-1,23.6-3.2,24.2c-1.6,0.4-1.6,0.5,0,0.6c1.6,0.1,1.7,3.5,2,48.1
	c0.3,49,0.5,52.1,4,49.3c0.8-0.6,3.8-0.7,8.3-0.2c3.8,0.4,12.8,1.1,19.8,1.5c14.3,0.8,17.1,2,7,2.9c-6.3,0.6-27.7,3.7-48.8,7
	c-5,0.8-15.1,1.9-22.5,2.5c-69.1,5.6-104,23.2-101.8,51.4c1.5,18.2,19.7,33.3,55.1,45.5c15,5.2,50,14.2,68.2,17.6
	c7.7,1.4,22.3,4.2,32.5,6.1s22.1,4.1,26.5,4.9c14.8,2.6,51.9,9.6,59,11c3.8,0.8,21.6,3.6,39.5,6.1c40.3,5.8,60.2,6.5,73,2.5
	c4.1-1.3,8.2-2.5,9.1-2.8c5.2-1.5,6.8,8.8,2,12.8l-2.9,2.4l-49.9,0.2c-47.6,0.2-101.8-1.3-139.9-3.9c-46-3.1-54.1-3.8-75.5-5.9
	c-31.6-3.1-84.8-12.1-108-18.2c-42.3-11.2-72.9-28.8-97-55.7l-6.1-6.8l-17.7,6.7c-16.2,6.1-21.3,8.2-38.4,15.6
	c-6.7,2.9-25,12.6-32.8,17.4c-41.1,25.3-29.2,45.1,35.9,59.4c40.1,8.8,102.1,16.9,150.1,19.5c45.4,2.5,65,3,110.5,3
	c188.4,0,333.9-21.4,346.2-50.8c2.1-5,0.8-8.5-5.1-13.9c-20.6-18.8-70.1-31.4-225.6-57.7c-63.5-10.7-83-17.6-83-29.3
	c0-14.9,33.2-22.5,149.5-34.3c16.5-1.7,36.7-3.8,45-4.8l15-1.8l5-8c28.3-45.6,35-105.6,17.5-157.8
	C555.9,200.2,465.2,140.9,371.4,148.8 M333.3,263.1c-7,4.7-9.1,9.4-7.5,16.2c0.8,3.3,1.5,7.2,1.5,8.7c0,3.8,1.2,4.1,6.5,1.8
	c2.6-1.1,5.7-2,6.9-2c2,0,25.3,12.6,28.7,15.5c3.6,3.2,25.3,12.5,29.1,12.5c0.8,0,0.5-0.7-0.8-2c-4.3-4-4.1-18.4,0.3-25.3
	c1.3-2,2.4-4.1,2.4-4.5c0-0.4-7.3-3.7-16.3-7.2c-8.9-3.5-21.3-8.6-27.6-11.3C343.4,260.1,338.6,259.6,333.3,263.1 M314.9,286.6
	c-6.9,7.9-21.1,23.3-41.6,45.3c-19,20.3-20.5,23.4-14.6,29.7c3.6,3.9,7.5,2.7,11.3-3.4c3.5-5.6,12.8-16.4,30.9-35.8
	c23.9-25.6,26.3-29.9,22.5-39.9C322,278.8,321.5,279.1,314.9,286.6 M339,306.4c-1.2,7.7,0.5,44.5,2,44.5c1.3,0,2.6-40.9,1.4-45.9
	C341.4,300.8,339.7,301.5,339,306.4 M457.4,303.6c5.3,2,40.1,14.3,53,18.7c8.5,2.9,18.3,6.5,21.8,7.9c3.5,1.4,8.9,3.3,12,4.1
	c3.1,0.8,6.6,1.7,7.7,2.1c5.8,1.8-7.7-4.4-21.8-10.1c-23.3-9.4-32.1-12.4-61.2-20.9C462,303.2,453.1,301.9,457.4,303.6 M366.1,313.1
	c-1.4,11.4-0.8,29.8,1,29.8c2.2,0,11.8-2.5,23.6-6.1l9.8-3v-13.5l-7.3-2.3c-4-1.3-7.8-2.5-8.4-2.8c-0.7-0.3-1.4,1.3-1.8,4.1
	c-0.9,6.1-3.1,6-3.1-0.2v-4.8l-6-3.2C366.3,307.1,366.8,307,366.1,313.1 M403.4,325.2c0,1.7-0.3,4.2-0.6,5.4
	c-0.6,2.1-0.3,2.3,5.1,2.3c5.1,0,5.6,0.2,5,1.8c-2.1,5.2-2.6,10.6-1.9,21.3c0.4,6.3,0.9,24.1,1.1,39.5c0.2,15.4,0.5,31.6,0.6,36
	c0.1,4.4,0,9.6-0.3,11.5l-0.5,3.5l4.8,0.3l4.8,0.3v-56.9c0-31.3,0.3-58.3,0.6-60.1c0.5-2.7,0.3-3.1-1.5-3.1c-1.1,0-5.5-1.1-9.6-2.4
	l-7.5-2.4L403.4,325.2 M429.1,328.6c-0.6,0.9,2.8,32.2,4.8,45.3c0.8,5.2,2.2,21.7,3,36.5c0.8,14.8,1.8,29,2.2,31.4l0.6,4.4l8.6-0.7
	c13.9-1.1,14.9-1.4,15.3-4.4c0.5-4-0.8-103.2-1.5-103.8c-0.4-0.4-14.1-4.3-15.5-4.4c-0.9-0.1,0,22.4,1.3,31.5
	c2.7,19.5,4.4,37.8,4.3,44c-0.1,4.4-0.3,5-0.5,2c-1.2-13-5.6-50.4-6.8-58c-0.8-5-1.5-11.6-1.5-14.7c0-6.2,0.1-6.1-7.3-7.4
	c-2.1-0.4-4-1.1-4.3-1.6C431.2,327.7,429.7,327.6,429.1,328.6 M466.6,389.9c0.3,44.9,0.5,52.2,1.8,53.1c1.5,1,14.6,0.7,15.6-0.4
	c0.3-0.3,0.8-7.5,1.1-16.1l0.6-15.5l-3.4-0.3l-3.4-0.3l-0.3-16c-0.2-8.8,0-18.4,0.3-21.3l0.6-5.3l5.2,0.6c8.1,0.9,17.8,2.5,21.9,3.6
	l3.8,1v38.9h-6.5c-3.6,0-6.5,0.4-6.5,0.9c0,0.5,0.9,6.9,2,14.3c1.1,7.3,2,13.7,2,14.1c0,1.1,7.4,0.9,10.4-0.2c2.6-1,2.6-1,2.7-14.3
	l0.2-13.3l0.7,13.5c0.4,7.4,0.7,13.7,0.8,13.9c0.3,0.7,14.5-0.8,15.3-1.7c0.5-0.5,0.7-19.9,0.6-43.2l-0.3-42.3l-8.5-2.3
	c-4.7-1.3-8.8-2.3-9.3-2.3c-0.4,0-0.8,3.1-0.8,6.9c0,5.8-0.3,6.9-1.5,6.4c-1.1-0.4-1.5-2.2-1.5-6.8c0-7-0.8-8.2-6-8.7l-3.5-0.3
	l-0.3,6.3c-0.4,8.2-2.2,8.1-2.2,0v-6.3l-6.5-2.1l-6.5-2.1v5.4c0,4.8-0.2,5.4-2,5.4c-1.8,0-2-0.6-1.8-5.7l0.3-5.7l-5.3-1.2
	c-2.6-0.6-5.2-1.2-7.8-1.8l-2.6-0.6L466.6,389.9 M558.1,340.7c-4.2,4.6-0.3,16.2,5.3,16.2c8.3,0,9.9-12.4,2-16.5
	C561.6,338.4,560.1,338.5,558.1,340.7 M366.4,391c0,24.8,0.2,45,0.5,44.7c1.7-1.7,3-52.5,1.8-72.8c-0.7-11.5-0.5-14.7,0.5-15.8
	c1.1-1.1,1-1.3-0.7-1.3C366.4,345.9,366.4,346,366.4,391 M425.1,356.6c-1.4,14.5,0.5,81,2.4,84.5c0.7,1.2,0.6,1.7-0.3,1.5
	c-0.7-0.1-1.4,0.5-1.6,1.5c-0.3,1.5,0.4,1.8,4.7,1.8h5.1l0-5.3c0-11-4-61.9-6-75.3c-1.1-7.7-2-14.3-2-14.8c0-0.4-0.4-0.8-0.9-0.8
	C426.1,349.9,425.4,352.9,425.1,356.6 M334.2,353.1c-0.1,0.4-2.3,1.1-4.7,1.5c-7.2,1.2-7.1,0.3-6.8,45.6l0.3,39.8l2.8,2.4
	c3.3,2.8,5.1,3,10,0.9c2-0.8,3.9-1.5,4.2-1.5c0.4,0,0.4,0.7,0.1,1.5c-0.9,2.3,5.9,2.1,7-0.3c0.5-1,1.1-21.9,1.4-46.5l0.5-44.8
	l-7.2,0.3C337.7,352.2,334.3,352.7,334.2,353.1 M537,396c0.4,22.8,0.7,41.4,0.8,41.5c0.5,0.5,14-1.6,14.6-2.2
	c1.7-1.7,1.6-75.3,0-76.4c-2.5-1.6-3.5-0.5-3.8,4.1c-0.5,6.7-2.2,7.3-2.2,0.7c0-6.3-1-7.6-6.4-8.5l-3.6-0.6L537,396 M326.6,360.6
	c-1.1,2-1.3,16.5-0.3,15.8c0.4-0.2,0.8-3.5,1-7.2c0.2-4.5,0.8-7.4,1.9-8.6c1.5-1.6,1.5-1.8,0-1.8
	C328.2,358.9,327.1,359.7,326.6,360.6 M298.4,390.9c0,7.2,0.2,8.2,1.6,7.6c0.9-0.3,2.2-0.2,2.9,0.4c2.2,1.8,4.5,0,4.5-3.5
	c0-3.7-2.4-6.6-3.4-4c-1.1,2.9-2.6,1.5-2.6-2.4c0-2.2-0.6-4.4-1.5-5.1C298.6,382.8,298.4,383.7,298.4,390.9 M325.5,388.6
	c0.1,2.4,0.2,2.5,0.9,0.8c1.2-2.7,1.2-3.5,0-3.5C325.9,385.9,325.4,387.1,325.5,388.6 M325.6,403.1c-0.1,1.8,0.2,3.9,0.8,4.8
	c0.7,1.1,1,0.2,1-3.3C327.4,399.3,325.9,398.1,325.6,403.1 M300,408.1c-1,3.7-0.7,40.3,0.3,39.2c1.3-1.4,2.6-41.5,1.3-41.5
	C301.1,405.9,300.4,406.9,300,408.1 M312.5,424.6c0,8.7,0.4,17.5,0.9,19.8c0.6,2.7,0.9-2.5,0.9-15.8c0.1-12.6-0.2-19.8-0.9-19.8
	C312.8,408.9,312.4,414.7,312.5,424.6 M325.9,416.4c-1,9-0.1,22.9,1.5,24.9c1.6,1.9,6.4,2.1,8,0.2c1.8-2.2,2.6-14.3,1.1-16.1
	c-1-1.2-1-1.5,0.1-1.5c3.4,0-1-1.9-5.1-2.2l-4.5-0.3l0.3-5.8C327.7,407.8,326.7,408.3,325.9,416.4 M487.4,427.4v15.5h11v-5
	c0-2.7-0.5-8.3-1.1-12.3c-0.6-4-1.3-8.7-1.5-10.5c-0.4-3-0.7-3.3-4.4-3.3h-4V427.4"/>
<path class="st4" d="M359.9,150.5c-62.5,7.9-122.9,53.2-153.1,114.9c-29.3,59.8-29.6,126.3-1.1,189.8c2.8,6.3,3,6.4,10.3,4.3
	c8.7-2.6,23.8-5.4,40.5-7.5c8.9-1.1,16.6-2.3,17-2.6c0.5-0.3,0.8-20.6,0.8-45.3c0-39.1,0.2-45,1.6-46.7c1.1-1.4,1.7-1.6,2.1-0.7
	c0.8,2,2.1,1.5,2.7-1.1c0.7-3,8.6-12.7,10.2-12.7c0.7,0,1.4,1.5,1.7,3.3c0.3,2.8,0.4,2.7,0.6-1c0.1-3.7,0.8-4.8,4.8-8.5
	c2.6-2.3,7.5-6.8,10.8-10c6.9-6.4,7.5-6.7,7.5-3.5c0,1.8,0.2,2,1,0.8c0.5-0.8,1-3,1-4.9c0-2.8,1.4-4.9,8.2-12.4
	c11.2-12.3,11.2-12.3,28.5-4.2l8.2,3.8l-0.7,19c-1.4,35.6-0.9,116,0.7,117.9c0.9,1.1,1.6,1.3,2.1,0.6c0.5-0.8,3.8-0.8,11.6-0.1
	c6,0.5,14.4,1.2,18.7,1.5l7.7,0.5l0.3-54.1l0.3-54.1l3.9-1.3c6.8-2.3,6.9-3.8,0.3-3.3l-5.8,0.4l0.3-5.6c0.3-6.5-0.6-6.3,13.3-2.6
	c5.5,1.5,11.3,2.7,12.9,2.7c1.6,0,3.4,0.3,4,0.6c0.6,0.4,3.1,1.1,5.6,1.7l4.5,1l0.7,7c1.8,18,2.6,19.9,2.7,6.6
	c0.1-12.3,0.1-12.4,2.4-11.8c1.2,0.3,4.8,1.1,7.9,1.7l5.6,1.1l0.6,4.5c0.3,2.5,0.6,6.7,0.6,9.4c0,2.7,0.5,4.9,1,4.9
	c0.6,0,1-3.5,1-8.5c0-9.7-0.6-9.3,9.8-6.8l7.3,1.7l-0.3,5.3c-0.3,4.8,0.3,6.3,2.8,6.3c0.2,0,0.4-2.5,0.4-5.6c0-4.1,0.3-5.5,1.3-5.1
	c0.7,0.3,3.6,1.2,6.5,2.2l5.3,1.7l0.1,6.7c0.1,7.2,1.5,4.6,1.8-3.2l0.1-3.9l4.2,0.7c5.8,0.9,5.8,1,5.8,8.1c0,8.5,1.7,9.2,2.5,1
	c0.4-3.6,1.1-6.5,1.6-6.5s4.7,1,9.4,2.1l8.5,2.1l0.1,37.6c0.1,30.8,1.3,45.4,1.8,20.9c0.1-3.2,0.5-5.8,1.1-5.8s1-1.4,1-3.1
	c0-2.1-0.4-2.8-1.2-2.3c-0.9,0.5-1-1.9-0.5-9.7c0.4-5.7,0.9-16.2,1.3-23.3l0.7-12.9l4,0.6c5.5,0.9,5.7,1.1,5.7,6.7
	c0,3.1,0.4,4.8,1,4.4c0.5-0.3,1-2.4,1-4.6c0-4.3,2.5-5.5,5-2.4c2,2.4,1,74.9-1,77c-1,1-4.3,1.7-10.4,2c-4.9,0.3-9.2,0.9-9.5,1.4
	c-0.8,1.3-14.6,2.2-15.8,1.1c-0.6-0.6-2-0.4-3.9,0.6c-3.5,1.8-9.8,2-11.1,0.3c-0.5-0.7-1.5-5.5-2.2-10.8c-1.4-11.3-3.4-19.9-2.5-11
	c1.9,18.3,2.1,21.6,1.7,22.7c-0.6,1.7-10.5,1.7-12.1,0c-1-1-1.5-0.9-2.3,0.5c-1.2,2.2-16.4,2.6-17.1,0.5c-0.3-1-0.9-0.9-2.2,0.3
	c-3,2.5-26,2.8-26.2,0.3c-0.1-1-0.8-14-1.7-28.8c-0.9-14.8-2.5-33.3-3.5-41s-2.2-16.4-2.6-19.2c-0.6-4.6-1.8-7.2-3-6.1
	c-0.2,0.2,0.7,8.2,2,17.8c2.4,17.6,6,60.9,6,73c0,7.2-0.8,7.9-8,6.6l-3.3-0.6l-0.7-31.2c-1.1-53.3-2.2-59-2.1-11
	c0.1,37.7-0.1,43.3-1.4,43.4c-0.8,0.1-4,0.2-7,0.3c-14.8,0.4-62.3,8.1-79.7,13c-48.4,13.6-58.4,46-20.7,67.1
	c25.7,14.4,52.7,22.2,155.9,45.4c12.7,2.8,30.8,6.9,40.3,9.1c9.5,2.2,23.9,5.3,32,7c8.1,1.7,21,4.6,28.7,6.6s16.2,3.8,19,4.2
	c7.8,1,9.9,7.9,4.1,13.6c-8.3,8.3-223.8,0.4-300.1-11c-26.1-3.9-27.9-4.2-51.7-8.9c-58.7-11.7-84-24-117.8-57.2l-10.5-10.4l-16.5,6
	c-9.1,3.3-19.4,7.4-23,9c-4.6,2.1-9.3,4.1-14,6.1c-19.5,8.2-45,23.8-52.2,31.8c-12,13.3-7.3,23.8,14.7,33.5
	c13.3,5.8,20.5,7.8,54.6,15.2c13.3,2.9,74.4,11.3,100.5,13.9c54.1,5.4,159.3,6.7,244.5,3c131.5-5.6,230.9-24.3,244.1-45.9
	c4.5-7.4,2.2-12.4-9.3-20.3c-21.2-14.6-62.1-25.7-155.8-42.2c-12.4-2.2-27.5-4.9-33.5-6.1c-6-1.1-16-2.8-22-3.6
	c-11.1-1.6-44-7.9-59.5-11.5c-28.6-6.6-39.6-17.1-28.6-27.3c10.5-9.9,58.7-18.8,142.6-26.5c20.1-1.8,57-5.8,61.5-6.6
	c1.3-0.2,3.9-3.5,7.2-9.2c42-71.1,33.8-159.2-20.7-222.8C500.8,168,431.4,141.4,359.9,150.5 M334.8,261.8c-2.3,1.1-5.6,4.1-7.3,6.6
	l-3.2,4.5l1.8,9.5c1,5.2,2.2,9.5,2.7,9.5s3.5-0.9,6.7-2.1l5.7-2.1l5.1,2.6c2.8,1.4,9.3,5.1,14.4,8.2c18.8,11.4,22.6,13.2,51.3,23
	c5.5,1.9,13.3,4.1,17.5,4.9c4.2,0.8,12.3,2.8,18.1,4.4c12,3.3,26,6.6,44,10.5c6.9,1.5,14.6,3.4,17.2,4.1c2.6,0.8,5.3,1.4,6,1.4
	c1.5,0,21.7,5.4,30.4,8.1c8.2,2.6,21.5,2.7,23.7,0.2c5.3-6,1.1-16.3-6.7-16.3c-1.4,0-5.3-1.4-8.7-3.1
	c-20.3-10.3-63.2-25.5-93.8-33.3c-7.4-1.9-22.9-6.4-34.5-9.9c-14.5-4.5-21.5-6.2-22.6-5.6c-3.6,1.9-5.3,6.3-5.9,15.5
	c-0.6,8.7-0.6,8.8-1.3,4c-1-6.7,0.4-13.5,3.7-18.6c1.5-2.2,2.6-4.2,2.4-4.3s-8.7-3.5-18.8-7.5s-22.5-9.1-27.3-11.3
	C344,259.6,340.2,259.1,334.8,261.8 M317.6,283c-6.2,7.4-48.7,53.5-51,55.3c-4,3.1-11.2,13.6-11.2,16.2c0,3.7,2.8,8.2,5.4,8.9
	c4.1,1,5.8,0.1,9.5-5.2c5.2-7.5,17.2-21.4,28.6-33.4c23.3-24.3,25.4-27.3,25.4-35.9C324.4,279.1,322.4,277.3,317.6,283 M339.5,317.1
	c0.1,16.8,1.6,15.1,2.6-3c0.6-10.1,0.5-11.3-1-11.3C339.6,302.9,339.4,304.5,339.5,317.1 M366,310.1c-1.1,5.5-1.7,32.6-0.7,33.2
	c1.2,0.7,4.6-0.1,21.9-5.2c13.8-4.1,14.5-4.7,14-13.2l-0.3-4.5l-8-2.8c-9.5-3.3-10.5-3.1-10.5,2.2c0,2.2-0.5,4-1,4s-1-2.2-1-4.9V314
	l-6-3.1C367.2,307.3,366.6,307.2,366,310.1 M339.8,341.4c0,5,0.2,7.1,0.4,4.8c0.2-2.3,0.2-6.4,0-9
	C339.9,334.5,339.8,336.4,339.8,341.4 M381.6,342.2l-16.3,4.1l0.3,47l0.3,47l12.5,1.7c6.9,0.9,14.4,1.7,16.8,1.8l4.2,0.1v-53
	c0-29.2-0.3-53-0.8-52.9C398.2,338,390.6,339.9,381.6,342.2 M335,353.5c-0.2,0.6-2.6,1.3-5.1,1.6c-2.6,0.3-5.1,1.1-5.6,1.9
	c-0.5,0.7-0.9,19.7-0.9,42.2l0,40.8l2.5,2.5c1.3,1.3,3.3,2.4,4.3,2.4c1.5-0.1,1.4-0.2-0.4-0.9c-4.6-1.8-5-5.7-4.6-40.2l0.3-18.8h13
	v55.8l2.2,0.6c1.2,0.3,2.5,0.3,2.8,0c0.3-0.3,0.8-16.1,1.1-35.2c0.3-19.1,0.6-33.7,0.8-32.6c0.1,1.1,0.7,2.5,1.2,3
	c0.5,0.5,1.1,5.9,1.3,12c0.2,6,0.4,0.4,0.5-12.6l0.2-23.6l-6.5,0.1C338.2,352.3,335.3,352.8,335,353.5 M305.5,358.5
	c0,3.3,0.5,8.2,0.9,10.9c0.5,3.4,0.6,1.6,0.3-5.5C306.1,352.4,305.4,349,305.5,358.5 M330.8,357.8c-5.3,1.3-5.4,1.5-5.4,13.1v10.9
	h13v-12.5C338.4,355.4,338.7,355.9,330.8,357.8 M317.2,363.9c-0.4,1.9-0.9,6-1,9l-0.2,5.5l-9.3,0.1c-11.2,0.1-11.1,0.1-11.1,11
	c0,13.9,0,14.1,7.3,13.6c7-0.5,7.7-1.1,7.5-6.7l-0.1-4l-1,3.8c-1,3.7-1,3.8-6.4,3.8h-5.4v-17h5.5c3.6,0,5.5,0.4,5.5,1.2
	c0,0.9,0.3,0.9,1.2,0c0.7-0.7,2.2-1.2,3.5-1.2c2.3,0,2.3,0.2,2.3,10.9c0,8.4,0.3,11,1.4,11.4c1.1,0.4,1.5-1.1,1.8-7.6
	C319.1,384.9,318,359.7,317.2,363.9 M344.5,365.6c0.1,2.9,1.5,5.7,2.3,4.5c0.7-1.1-0.8-6.3-1.8-6.3
	C344.6,363.9,344.4,364.7,344.5,365.6 M447.5,368.5c0,1.2,0.3,1.4,0.6,0.6c0.3-0.7,0.3-1.6-0.1-1.9S447.4,367.4,447.5,368.5
	 M479.4,389.9v21h2.9c1.6,0,3.2,0.6,3.5,1.3c0.5,1,0.7,1,1.2,0c0.9-1.9,7.1-1.6,8.3,0.5c0.8,1.3,1.2,1.4,1.8,0.6
	c0.4-0.7,3.5-1.3,6.8-1.5l6-0.3l0.3-19.1l0.3-19.1l-4.8-1.1c-11.2-2.5-15.7-3.2-20.8-3.2h-5.5V389.9 M465.8,382.4
	c0,6.6,0.2,9.2,0.4,5.7c0.2-3.5,0.2-8.9,0-12S465.8,375.8,465.8,382.4 M448.6,376.9c0,1.4,0.2,1.9,0.5,1.3c0.3-0.7,0.3-1.8,0-2.5
	C448.8,374.9,448.6,375.5,448.6,376.9 M449.5,385c0,2.4,0.5,6.7,0.9,9.4c0.6,3.7,0.7,2.6,0.3-4C450.1,380.9,449.3,377.4,449.5,385
	 M300.4,418.5c0,7,0.2,12.5,0.4,12.3c1-1.1,1.6-24.9,0.7-24.9C300.8,405.9,300.4,410.5,300.4,418.5 M464.7,414.9
	c0,2.5,0.2,3.5,0.4,2.3c0.2-1.2,0.2-3.3,0-4.5C464.9,411.4,464.7,412.4,464.7,414.9 M313.5,414.5c0,1.2,0.3,1.4,0.6,0.6
	c0.3-0.7,0.3-1.6-0.1-1.9S313.4,413.4,313.5,414.5 M313.5,421.5c0,1.2,0.3,1.4,0.6,0.6c0.3-0.7,0.3-1.6-0.1-1.9
	S313.4,420.4,313.5,421.5 M313.7,430.9c0,3.6,0.2,5,0.4,3.3c0.2-1.8,0.2-4.7,0-6.5C313.9,425.8,313.7,427.3,313.7,430.9
	 M280.7,446.9c-3.6,1.5-2.7,2,3.5,2c3.5,0,5.3-0.4,4.8-0.9C287.3,446.4,283.1,445.9,280.7,446.9"/>
</svg>
