<?xml version="1.0" encoding="utf-8"?>
<!-- Generator: Adobe Illustrator 24.1.2, SVG Export Plug-In . SVG Version: 6.00 Build 0)  -->
<svg version="1.1" id="Ebene_1" xmlns="http://www.w3.org/2000/svg" xmlns:xlink="http://www.w3.org/1999/xlink" x="0px" y="0px"
	 viewBox="0 0 136.9 145.4" style="enable-background:new 0 0 136.9 145.4;" xml:space="preserve">
<style type="text/css">
	.st0{clip-path:url(#SVGID_3_);fill:url(#SVGID_4_);}
	.st1{filter:url(#Adobe_OpacityMaskFilter);}
	.st2{enable-background:new    ;}
	.st3{fill:#FFFFFF;}
	.st4{mask:url(#SVGID_1_);}
	.st5{clip-path:url(#SVGID_6_);}
	.st6{clip-path:url(#SVGID_8_);fill:url(#SVGID_9_);}
	.st7{opacity:0.25;}
	.st8{clip-path:url(#SVGID_11_);}
	.st9{clip-path:url(#SVGID_13_);fill:#0092C8;}
	.st10{opacity:0.15;}
	.st11{clip-path:url(#SVGID_15_);}
	.st12{clip-path:url(#SVGID_17_);fill:#FFFFFF;}
</style>
<g>
	<g>
		<defs>
			<path id="SVGID_2_" d="M51.1,17.5L13,55.6C4.1,64.5,4.1,79,13,87.9L51.1,126c8.9,8.9,23.5,8.9,32.3,0l38.1-38.1
				c8.9-8.9,8.9-23.4,0-32.3L83.5,17.5c-4.4-4.5-10.3-6.7-16.2-6.7C61.4,10.8,55.6,13.1,51.1,17.5"/>
		</defs>
		<clipPath id="SVGID_3_">
			<use xlink:href="#SVGID_2_"  style="overflow:visible;"/>
		</clipPath>
		
			<linearGradient id="SVGID_4_" gradientUnits="userSpaceOnUse" x1="-143.5968" y1="-205.8472" x2="-141.8825" y2="-205.8472" gradientTransform="matrix(62.1889 -26.3976 26.3976 62.1889 14378.3525 9106.1602)">
			<stop  offset="0" style="stop-color:#0092C8"/>
			<stop  offset="1" style="stop-color:#00AFDD"/>
		</linearGradient>
		<polygon class="st0" points="-40.5,29.8 111.2,-34.6 175.1,116 23.4,180.4 		"/>
	</g>
</g>
<g>
	<defs>
		<filter id="Adobe_OpacityMaskFilter" filterUnits="userSpaceOnUse" x="-60.8" y="-56.4" width="256.3" height="256.3">
			<feColorMatrix  type="matrix" values="1 0 0 0 0  0 1 0 0 0  0 0 1 0 0  0 0 0 1 0"/>
		</filter>
	</defs>
	<mask maskUnits="userSpaceOnUse" x="-60.8" y="-56.4" width="256.3" height="256.3" id="SVGID_1_">
		<g class="st1">
			<rect x="3.2" y="7.7" width="128.2" height="128.2"/>
			<g class="st2">
				<path class="st3" d="M45.3,91.3c10.7-7.7-7.8-15.5-12.3-17.8c-4.6-2.3,0-6.8,4.8-8.9c4.8-2.1,3.2,13,8.9,7.3
					c5.5-5.5-9.3-11.9,3.3-19.5c12.7-7.6-5.6-5.6-5.6-12.7c0-7.1,8-8,8-13.4c0-3.6-6.2-4.2-10.4-4.2L10.8,53.4
					c-0.7,0.7-1.3,1.4-1.9,2.2C9,61.4,16,62.4,20,62.4c5,0,7.8,7.8,2.7,12.8c-5,5-5.4,13.6-2.1,16.9c2.2,2.2,1.4,6.3,0.7,8.8
					l5.9,5.9C28.9,101.5,36,98.1,45.3,91.3"/>
				<path class="st3" d="M64.7,16.1c8.6-1.1,0.6,6,4.7,7.8c3.7,1.6,13.6-3.3,14.7-10.1c-4.8-4.1-10.8-6.1-16.8-6.1
					c-2.7,0-5.3,0.4-7.9,1.2C58.9,12.4,59.3,16.8,64.7,16.1"/>
				<path class="st3" d="M85.7,64.6c-1.4-5.9-15.2-8.1-21.8-3.2c-9.7,7.1-11.3,20.7-3.7,21.5c7.6,0.8,14.4,8.1,10.6,15.3
					c-3.8,7.2,4.6,24.9,13.8,12.1c9.2-12.8,4.6-15.3,5.3-22.4c0.7-7,9.4-16,7.2-18.6C95.1,66.7,86.8,69.2,85.7,64.6"/>
				<path class="st3" d="M54.8,132.7c3.9,2.1,8.2,3.2,12.5,3.2h0c6.7,0,13.3-2.5,18.4-7.6l3.2-3.2C83.4,124,64.4,129.7,54.8,132.7"
					/>
				<path class="st3" d="M109.4,82.4C99.2,86,92.1,97.4,98,99c5.6,1.5,11.5-3,15.5,1.5l10.3-10.3C121.8,86.1,118.6,79.3,109.4,82.4"
					/>
				<path class="st3" d="M76.2,40.6c2.3-0.3,0.5-2.9-0.8-3.5c-1.3-0.6-5.6-0.3-4,1.6C72.6,40.1,73.9,40.9,76.2,40.6"/>
				<path class="st3" d="M125.9,71.2c0-1.4-5.1-2.8-6.4-2.6c-1.3,0.1-1.8,2.4,2,3.3C124.3,72.6,125.9,72.6,125.9,71.2"/>
				<path class="st3" d="M81.7,30c-0.6,4.5,3.9,6.2,1.7,8.4s-15.5,7-12.4,8.4c8.3,3.7-5.8,3.2,0,9c2.9,2.9,11.9-2.2,11-5.6
					c-0.3-1,2.5-4.6,4.7-2.7c1.9,1.7,7.8,3.5,7.8,13.3c0,5.2,4.5,10.3,9.1,9.1c3.8-1,4.5-5.8,2.1-7.6c-3-2.2,5.1-5,13.4,4
					c3.8,4.1,10.1-0.9,11.4-1.2v0c-1.1-4.3-3.4-8.4-6.7-11.8L92.3,21.9C86.5,22.5,82,28.2,81.7,30"/>
			</g>
		</g>
	</mask>
	<g class="st4">
		<g>
			<g>
				<defs>
					<rect id="SVGID_5_" x="3.2" y="7.7" width="128.2" height="128.2"/>
				</defs>
				<clipPath id="SVGID_6_">
					<use xlink:href="#SVGID_5_"  style="overflow:visible;"/>
				</clipPath>
				<g class="st5">
					<g>
						<defs>
							<path id="SVGID_7_" d="M67.3,7.7c-6.7,0-13.3,2.5-18.4,7.6L10.8,53.4c-5,5-7.5,11.5-7.6,18.1V72c0.1,6.6,2.6,13.1,7.6,18.1
								l38.1,38.1c5.1,5.1,11.7,7.6,18.4,7.6h0c6.7,0,13.3-2.5,18.4-7.6l38.1-38.1c5.1-5.1,7.6-11.8,7.6-18.4
								c0-6.7-2.5-13.3-7.6-18.4L85.7,15.3C80.6,10.2,73.9,7.7,67.3,7.7L67.3,7.7L67.3,7.7z"/>
						</defs>
						<clipPath id="SVGID_8_">
							<use xlink:href="#SVGID_7_"  style="overflow:visible;"/>
						</clipPath>
						
							<linearGradient id="SVGID_9_" gradientUnits="userSpaceOnUse" x1="-145.1502" y1="-205.8552" x2="-143.4358" y2="-205.8552" gradientTransform="matrix(43.2909 -44.829 44.829 43.2909 15542.1484 2514.9248)">
							<stop  offset="0" style="stop-color:#8CC63F"/>
							<stop  offset="0.6137" style="stop-color:#C9E39F"/>
							<stop  offset="1" style="stop-color:#F1F6DE"/>
						</linearGradient>
						<polygon class="st6" points="-60.8,74 65.1,-56.4 195.4,69.5 69.5,199.9 						"/>
					</g>
				</g>
			</g>
		</g>
	</g>
	<g class="st7">
		<g>
			<g>
				<defs>
					<rect id="SVGID_10_" x="3.2" y="7.7" width="128.2" height="128.2"/>
				</defs>
				<clipPath id="SVGID_11_">
					<use xlink:href="#SVGID_10_"  style="overflow:visible;"/>
				</clipPath>
				<g class="st8">
					<g>
						<defs>
							<rect id="SVGID_12_" x="3.2" y="7.7" width="128.2" height="128.2"/>
						</defs>
						<clipPath id="SVGID_13_">
							<use xlink:href="#SVGID_12_"  style="overflow:visible;"/>
						</clipPath>
						<path class="st9" d="M67.3,135.9c-6.7,0-13.3-2.5-18.4-7.6L10.8,90.2c-5.1-5.1-7.6-11.8-7.6-18.4c0-6.7,2.5-13.3,7.6-18.4
							l38.1-38.1c5.1-5.1,11.7-7.6,18.4-7.6c6.7,0,13.3,2.5,18.4,7.6l38.1,38.1c5.1,5.1,7.6,11.7,7.6,18.4c0,6.7-2.5,13.3-7.6,18.4
							l-38.1,38.1C80.6,133.3,74,135.9,67.3,135.9L67.3,135.9z M15.3,57.8c-3.8,3.8-5.7,8.9-5.7,13.9c0,5.1,1.9,10.1,5.7,14
							l38.1,38.1c3.8,3.8,8.9,5.7,13.9,5.7c5.1,0,10.1-1.9,13.9-5.7l38.1-38.1c3.8-3.8,5.7-8.9,5.7-13.9c0-5.1-1.9-10.1-5.7-13.9
							L81.2,19.8c-3.8-3.8-8.9-5.7-13.9-5.7c-5.1,0-10.1,1.9-13.9,5.7L15.3,57.8z"/>
					</g>
				</g>
			</g>
		</g>
	</g>
	<g class="st10">
		<g>
			<g>
				<defs>
					<rect id="SVGID_14_" x="3.2" y="7.7" width="124.9" height="87"/>
				</defs>
				<clipPath id="SVGID_15_">
					<use xlink:href="#SVGID_14_"  style="overflow:visible;"/>
				</clipPath>
				<g class="st11">
					<g>
						<defs>
							<rect id="SVGID_16_" x="3.2" y="7.7" width="124.9" height="87"/>
						</defs>
						<clipPath id="SVGID_17_">
							<use xlink:href="#SVGID_16_"  style="overflow:visible;"/>
						</clipPath>
						<path class="st12" d="M128.1,59.1c-1.1-2-2.6-4-4.3-5.7L85.7,15.3c-5.1-5.1-11.8-7.6-18.4-7.6c-6.7,0-13.3,2.5-18.4,7.6
							L10.8,53.4c-5.1,5.1-7.6,11.7-7.6,18.4c0,6.7,2.5,13.4,7.6,18.4l4.5,4.5C23.4,82.2,62.3,29.4,128.1,59.1"/>
					</g>
				</g>
			</g>
		</g>
	</g>
</g>
</svg>
