<?xml version="1.0" standalone="no"?>
<!DOCTYPE svg PUBLIC "-//W3C//DTD SVG 20010904//EN"
 "http://www.w3.org/TR/2001/REC-SVG-20010904/DTD/svg10.dtd">
<svg version="1.0" xmlns="http://www.w3.org/2000/svg"
 width="900.000000pt" height="321.000000pt" viewBox="0 0 900.000000 321.000000"
 preserveAspectRatio="xMidYMid meet">

<g transform="translate(0.000000,321.000000) scale(0.100000,-0.100000)"
fill="#000000" stroke="none">
<path d="M6760 2366 l0 -206 443 0 c488 0 526 -4 691 -68 167 -65 322 -190
398 -321 l37 -63 15 51 c40 135 29 264 -35 390 -90 180 -264 311 -514 388
l-90 27 -472 4 -473 3 0 -205z"/>
<path d="M4370 2546 c-319 -57 -498 -209 -546 -466 -47 -249 43 -414 296 -540
105 -52 196 -80 495 -151 320 -75 371 -91 422 -128 91 -66 96 -199 10 -282
-112 -109 -487 -131 -667 -39 -79 41 -160 156 -160 230 0 19 -8 20 -220 20
l-220 0 0 -32 c1 -109 66 -278 139 -360 85 -95 232 -171 408 -210 86 -19 130
-22 348 -22 205 -1 265 2 335 17 361 77 532 246 547 542 14 261 -99 407 -379
491 -124 37 -335 90 -509 128 -85 18 -189 48 -231 66 -197 81 -249 220 -128
341 60 60 119 79 261 86 224 11 349 -37 450 -174 64 -87 94 -97 288 -101 l163
-4 -7 54 c-33 268 -193 441 -474 515 -86 23 -118 26 -321 29 -156 2 -248 -1
-300 -10z"/>
<path d="M979 2502 c-39 -20 -62 -41 -84 -77 l-30 -48 -3 -894 -2 -893 230 0
230 0 0 358 c0 340 1 359 20 390 41 67 161 92 241 52 68 -35 114 -85 407 -443
157 -192 290 -351 296 -353 6 -2 132 -3 280 -2 l268 3 -476 570 c-262 314
-476 573 -476 576 0 4 138 130 308 280 169 150 309 276 312 279 3 3 60 54 128
114 67 60 122 110 122 112 0 2 -127 4 -283 4 l-283 0 -95 -87 c-52 -47 -146
-134 -209 -193 -63 -59 -214 -198 -335 -310 l-220 -203 -3 396 -2 397 -144 0
c-138 0 -146 -1 -197 -28z"/>
<path d="M5995 2511 c-52 -23 -94 -73 -100 -119 -4 -20 -7 -434 -8 -920 l-2
-882 228 0 227 0 0 970 0 970 -152 0 c-127 0 -160 -4 -193 -19z"/>
<path d="M3091 2475 c-44 -14 -84 -44 -104 -80 -9 -15 -13 -263 -17 -913 l-5
-892 228 0 227 0 0 950 0 950 -142 -1 c-91 0 -159 -5 -187 -14z"/>
<path d="M6851 2069 c-24 -5 -54 -15 -67 -24 l-24 -15 0 -735 0 -735 80 0 80
0 0 228 c0 267 8 308 72 378 68 73 101 81 398 87 204 4 273 9 346 25 184 41
325 115 447 234 71 70 79 80 73 105 -17 69 -119 207 -207 280 -54 44 -234 141
-244 131 -3 -3 1 -18 10 -34 8 -16 15 -51 15 -79 -1 -96 -56 -171 -165 -222
-56 -26 -70 -28 -211 -31 l-151 -4 -6 69 c-4 37 -7 132 -7 211 l0 142 -197 -1
c-109 -1 -218 -5 -242 -10z"/>
<path d="M7109 1137 c-67 -44 -74 -73 -77 -339 l-4 -238 131 0 130 0 3 300 3
300 -76 0 c-62 0 -82 -4 -110 -23z"/>
</g>
</svg>
