<?xml version="1.0" encoding="UTF-8"?><svg id="a" xmlns="http://www.w3.org/2000/svg" xmlns:xlink="http://www.w3.org/1999/xlink" viewBox="0 0 236.46 66.28"><defs><style>.d{fill:#ed1c24;}.e{fill:#00a651;filter:url(#b);}.f{fill:#010101;}</style><filter id="b" filterUnits="userSpaceOnUse"><feOffset dx="0" dy="0"/><feGaussianBlur result="c" stdDeviation="2"/><feFlood flood-color="#000" flood-opacity=".75"/><feComposite in2="c" operator="in"/><feComposite in="SourceGraphic"/></filter></defs><path class="d" d="M102.8,1.5c-6.6,1.9-9.7,4.3-11.9,9-3.6,8.1-1.7,15.2,5.5,19.6,2,1.3,9.1,3.6,15.8,5.3,6.8,1.6,13.1,3.7,14.1,4.5,3.4,3.1,1.6,8.4-3.4,10.2-7.8,2.7-17.7,.4-20.7-4.9-1.6-2.8-2-3-7.9-3-7.2,0-7.6,.6-4.4,7.7,3.7,8.1,17.2,12.5,32,10.4,13.1-1.8,19.5-7.6,19.5-17.6,0-9.4-3.4-11.9-22.3-16.6-6.4-1.6-12.7-3.7-14.1-4.7-3.6-2.7-3.8-6.5-.3-9.2,2.4-1.9,3.8-2.1,9.5-1.8,6.2,.3,7.1,.7,10.6,4.1,3.4,3.3,4.3,3.7,9,3.7,5.7,0,5.9-.3,3.7-5.8-2.1-4.8-5.1-8-9.5-9.9C123.2,.4,108.7-.1,102.8,1.5Z"/><path class="f" d="M178,6.1v6.1h14c16.5,0,22.7,1.7,29.1,8.1l3.9,3.9v-5.7c0-7-2.8-11.1-10.3-15-4.9-2.6-6.1-2.8-20.9-3.1l-15.8-.4V6.1Z"/><path class="d" d="M2,3.2C.1,5.1,0,6.5,0,32.7v27.5H13v-10.8c0-9.5,.3-11.1,1.9-12.6,3.5-3.2,7-1.7,13.5,6,3.4,3.9,8.1,9.4,10.6,12.3l4.5,5.2,7.8-.3,7.8-.3-14.1-16.8c-7.7-9.3-14-17.3-14-17.7,0-.5,5.7-5.9,12.7-12.2L56.4,1.7l-8.3-.3-8.3-.3-11.5,10.8c-16.9,15.9-15.3,15.8-15.3,1.4V1.2h-4.5c-3.2,0-5.1,.6-6.5,2Z"/><path class="d" d="M153.8,2.3c-1.7,.9-1.8,3.4-1.8,29.4v28.5h13V1.2h-4.7c-2.7,0-5.6,.5-6.5,1.1Z"/><path class="d" d="M66.7,2.9c-1,.3-2.2,1.6-2.8,2.9-.5,1.4-.9,14.2-.9,28.5v25.9h14V2.2l-4.2,.1c-2.4,.1-5.1,.3-6.1,.6Z"/><path class="d" d="M194,28.2V15.2h-7.3c-4.1,0-7.7,.3-8,.7-.32,.24-.58,6.8-.67,15.55,5.32-1.08,10.64-2.16,15.97-3.25Z"/><path class="e" d="M178.03,31.45c.02,1.44,.03,3.9-.03,6.95-.05,2.44-.35,20.67,1.16,21.63,.23,.15,.51,.17,.84,.17,1.8,0,2-.7,2-6,0-12.2,3.2-15,17-15,9.1,0,15.4-1.9,20.5-6.3,3.7-3.2,3.7-3.3,2.2-6.2-1.7-3.3-5-6.7-8.4-8.4-3-1.5-3.6-1.4-2.9,.5,1.6,4.1-5.7,9.4-12.9,9.4-2.66-.49-7.09-.94-12.27,.35-3,.75-5.42,1.88-7.2,2.89Z"/><path class="d" d="M188,44.2c-1.8,1.8-2,3.1-1.8,9.3l.3,7.2h7l.3-9.3c.3-8.7,.2-9.2-1.8-9.2-1.1,0-2.9,.9-4,2Z"/></svg>