<?xml version="1.0" encoding="utf-8"?>
<!-- Generator: Adobe Illustrator 24.1.2, SVG Export Plug-In . SVG Version: 6.00 Build 0)  -->
<svg version="1.1" id="Layer_1" xmlns="http://www.w3.org/2000/svg" xmlns:xlink="http://www.w3.org/1999/xlink" x="0px" y="0px"
	 viewBox="0 0 794.6 784.3" style="enable-background:new 0 0 794.6 784.3;" xml:space="preserve">
<style type="text/css">
	.st0{fill:#F43000;}
	.st1{fill:#FFFFFF;}
</style>
<path class="st0" d="M222.7,233.6c13.7-18.9,28.7-35.4,43.8-47.6c4.4-3.5,8.2-6.7,8.5-7s3.2-2.6,6.5-5.2
	c17.4-13.2,43.8-27.9,64.5-35.9c18.5-7.1,43.2-12.8,70.5-16.1c13.4-1.6,59.6-1.6,70.5,0.1c49.7,7.3,81.2,18.7,115.8,41.8
	c7.8,5.2,19,13.4,24.8,18.1c15.9,13,16.8,13.5,23.3,14c7.1,0.5,12.5-1.6,19.4-7.8c6.1-5.4,20.3-22.4,23-27.5s2.8-14.5,0.3-19.5
	c-2.5-4.8-25.9-27.6-38.4-37.4c-14.7-11.5-16-12.4-32.7-22.1c-25.5-14.9-44.7-23.8-68.9-31.6c-13.5-4.4-19.4-6-42.1-11.4
	c-19.1-4.5-65.4-7.3-97-5.8C386.2,34,337.8,43.9,310,54.1c-9.8,3.5-32.6,14-45,20.6c-34.4,18.4-75.1,50.1-97.3,75.8
	c-6.5,7.5-12.8,15.7-19,24.6"/>
<path d="M148.8,175.1c-29.8,42.8-55,99.3-65,147.9c-6.7,32.5-8.1,49.2-7.4,87.6c0.5,27.5,1.4,37.7,5.1,59.9
	c8.3,50.6,29.9,99.8,58.8,134.1c3.7,4.5,6.8,8.8,6.8,9.7s0.6,1.3,1.8,1.1c1.2-0.3,5.2,2.9,12.8,10.4c17,16.6,27.1,24.4,46.5,36.1
	c9.2,5.5,18.4,9.1,23.1,9.1c10.8,0,30.8-20.8,30.8-32c0-4.6-1.5-6.5-17.1-22c-24.5-24.4-41-48.4-55.9-81.5
	c-17.3-38.1-24.4-67.6-27.5-113.5c-2.1-32.2,6.9-81.3,21.6-117.3c10.3-25.1,24.1-49.7,39.6-71.1"/>
<path class="st1" d="M449.3,539.9c-3.7,0.5-7.5,1.1-11.2,1.6c-12.4,1.9-32.2,4.4-44,5.5c-56.5,5.5-83.9,12.4-104,26
	c-29.1,19.7-25.2,51.4,8.7,71.6c8,4.7,29.4,14,40.8,17.7c10.3,3.3,43.7,12.1,54,14.3c19.2,3.9,43.4,8.7,61.5,11.9
	c10.7,2,32.8,6.1,49,9.1c38,7.2,71.1,12.9,82.5,14.3c5,0.6,16.9,2.2,26.5,3.5c33.4,4.7,51.4,4.4,68.7-0.9c4.1-1.3,8.1-2.1,8.9-1.8
	c1.9,0.7,3.5,7,2.4,9.6c-0.4,1.2-1.8,3.2-3.1,4.4c-2.4,2.1-3.2,2.2-40.4,2.8c-64.8,1.1-138.8-1.5-230.5-8.1
	c-63.5-4.6-133-15.9-177.2-29c-19.4-5.7-42-15.9-54.8-24.7c-11.9-8.2-35.1-28.8-42.9-38.1l-3.3-3.9l-4.6,1.6
	c-18.2,5.9-53.3,20.1-70.7,28.7c-29.5,14.5-47.8,27.8-53.1,38.6c-4.8,9.9-1.9,17.1,10.3,25.4c22,14.8,72,26,165.3,37
	c100.9,11.9,277.3,12,394.5,0.4c74.9-7.4,122.8-15.5,154-25.8c21.7-7.3,31.7-12.8,37.5-20.8c4.6-6.3,4.2-11.5-1.1-17.3
	c-14.7-16-52.2-29.6-116.6-42.4c-42.3-8.4-93.7-17.8-129.8-23.6C482.1,620.2,437,610,427,605c-5.4-2.8-10.9-9.4-10.9-13.1
	c0-4.3,3.1-9.1,7.7-11.6c19.1-10.7,52.8-16.5,157.8-27.3c46.9-4.8,68.1-7,72-7.6c2.5-0.4,3.8-1.7,8.2-9.2
	c23.4-39.1,34.6-84,31.6-125.9c-2.6-35.9-12.9-68.9-31.3-100.8c-6.7-11.6-10.2-16.5-22-30.5c-21.9-26-46.3-45-78.2-61
	c-34.7-17.4-78.5-27.2-113.3-25.3c-42.6,2.2-74.3,11.7-108.5,32.5c-16.5,10-30.3,21-46.1,36.8c-34.6,34.5-54.9,71.3-66.8,121
	c-3.7,15.4-4.8,24-5.7,45c-1.3,32.6,2.5,57.6,13.8,91.5c3.2,9.6,12.4,31.5,13.7,32.8c0.5,0.5,6.3-0.5,12.9-2.2
	c11.8-2.9,25.5-5.3,51.2-8.9l12.5-1.7l0.5-52.5c0.3-32.5,0.9-53.1,1.5-54c0.7-1,1.2,16,1.5,52.5l0.5,53.9l5-0.2
	c8.8-0.5,11.1-2.1,5.6-4c-2.4-0.9-2.9-1.6-3.4-5.8c-0.3-2.7-0.7-27-0.8-54l-0.3-49l3.4-4.2c1.8-2.3,3.9-4.2,4.5-4.2
	c0.8,0,1.4,4.8,1.8,16.2c0.8,18.6,1.2,20.5,3.9,21.4c1.5,0.4,1.7,0.9,0.9,1.7c-0.7,0.7-1.1,5.9-1.1,14c0,13.1,1,17.8,3.4,15.8
	c0.7-0.6,3.8-1,7-1c3.9,0.1,6.1-0.3,6.7-1.2c0.5-0.8,0.9-6,0.9-11.7V463h2.6h2.6l-0.7,13.7c-0.4,8.5-1.2,14.1-1.9,14.5
	c-0.8,0.5-1,7.2-0.8,23.5c0.2,12.5,0.5,23,0.7,23.1c0.2,0.2,0.8,0.1,1.4-0.3c0.7-0.4,1.1-8.7,1.1-24.6c0-23,0.1-24,1.9-23.4
	c1.5,0.4,2-0.1,2.5-2.6c0.3-1.7,0.6-25.4,0.6-52.6v-49.5l9.2-9.9c5-5.5,10.2-10.2,11.6-10.6c3-0.7,6.8,0.5,19.5,6.6l9.8,4.6l-0.5,5
	c-0.3,2.7-0.8,12.6-1.2,21.9c-0.6,16-0.7,16.9-2.7,17.4c-1.8,0.5-1.8,0.6-0.4,1.1c1.5,0.6,1.7,5.5,2.2,55.1
	c0.5,46.2,0.9,54.9,2.1,56.8c1.4,2.1,1.7,2.2,3.2,0.9c1.4-1.3,3.1-1.4,9.2-0.7c4.1,0.5,14.2,1.2,22.3,1.6s15,1,15.2,1.5
	c0.3,0.4-3.2,1-7.8,1.4C465.6,537.7,457.9,538.7,449.3,539.9 M656.8,432c-8.6-2.9-215.5-56.7-229.8-65.5
	c-10.3-6.3-24.2-13.5-26.2-13.5c-0.7,0-3.6,1-6.4,2.1c-6.2,2.6-8.4,2.1-8.4-2c0-1.6-0.7-6-1.5-9.6c-1.5-6.3-1.5-6.8,0.4-9.8
	c2.2-3.5,6.5-7.8,9.6-9.5c3.9-2.2,12.1-1.4,19.3,1.9c3.7,1.7,13.5,5.8,21.7,9c8.3,3.3,18.6,7.5,23,9.3s8.8,3.6,9.7,3.9
	c1.6,0.6,191.5,60.4,188.6,65 M381.2,347.1c1.7,3.2,1.5,12.9-0.4,16.5c-1.9,3.7-6.9,9.4-25.7,29.4c-15.5,16.4-36,40.3-36,42
	c0,1.8-4.4,5-7,5c-3.3,0-6.8-3.5-7.6-7.7c-1-4.9,2.6-10.3,16.4-24.6c14.1-14.7,38.8-41.5,50-54.3c4-4.6,7.7-8.4,8.2-8.4
	S380.5,346,381.2,347.1z M439.1,380.5l7,3.5v6.1c0,5.2,0.2,6,1.8,5.7c1.3-0.2,1.8-1.5,2-5.6c0.2-2.8,0.5-5.2,0.7-5.2s4.4,1.3,9.2,3
	l8.8,2.9v7.7v7.6l-9.5,2.9c-5.2,1.6-13.1,3.8-17.5,4.9c-4.4,1.2-8.8,2.3-9.7,2.6c-1.7,0.5-1.8-0.6-1.8-13.4
	c0-13.2,0.8-26.2,1.7-26.2C432,377,435.3,378.6,439.1,380.5z M372.3,432.8l0.3,24.2h-3.2h-3.3v-24.8c0-13.6-0.4-25.2-0.8-25.8
	c-0.4-0.6-1.5-1.4-2.5-1.7c-1.7-0.6-1.2-1.5,3.5-6.5l5.3-5.8l0.2,8C372,404.9,372.2,419.4,372.3,432.8z M482.2,395.9
	c3,1,7.1,2.1,9.2,2.5c3.2,0.6,3.7,1,3,2.4c-0.4,0.9-0.9,31.7-1.1,68.4l-0.2,66.8H489h-4.2l0.3-36.3c0.2-19.9,0.2-49.6,0.2-66
	l-0.2-29.9l-6.2,0.7l-6.3,0.7l0.3-5.6C473.3,393.1,473.7,393,482.2,395.9z M511.9,402.6c3,0.7,5.6,1.5,5.8,1.7
	c0.3,0.2,0.9,4.9,1.3,10.3c0.5,5.5,1.8,15.7,3,22.9c3.3,21.3,8.1,75.6,8.1,91.5v3h-7.4c-4.1,0-7.7-0.3-7.9-0.8
	c-0.5-0.7-2-21.1-3.7-51.7c-0.6-9.9-1.5-20.8-2-24.3c-1.5-9.2-6-48.2-6-52.1c0-2.8,0.3-3.2,1.8-2.6
	C505.8,400.9,509,401.8,511.9,402.6z M359.9,422.3c0.2,10.1,0.7,22,1.1,26.5l0.7,8.2h-4.2c-4.7,0-4.4,0.7-5.9-13
	c-0.4-3-1.3-8-2.1-11.1c-0.8-3.1-1.4-8.5-1.4-11.9c0-6.1,0.1-6.2,5.3-11.6c2.8-3,5.4-5.4,5.7-5.4C359.4,404,359.8,412.2,359.9,422.3
	z M533.1,407.8l7.5,1.8l0.1,3.4c0.1,1.9,0.5,29.5,0.9,61.2l0.8,57.8h-5.5h-5.6l-0.6-18.8c-0.9-25.2-2.3-43-5.2-65.6
	c-2.7-20.8-3.2-41.6-1.1-41.6C525,406.1,529,406.9,533.1,407.8z M562.8,421.7c-0.2,3.5-0.2,6.3,0.2,6.3c0.3,0,1.7,0.3,3,0.7
	c2.3,0.6,2.3,0.5,1.9-6.1c-0.4-7.5-1.4-7.1,8.7-3.6l5,1.7v6.9c0,5.7,0.3,6.9,1.8,7.2c1.5,0.3,1.7-0.5,1.7-6.7c0-7.1,0-7.1,2.8-7.1
	c6.8,0,7.2,0.5,7.2,9.1c0,7.3,0.2,8,2.3,8.8s2.2,0.7,2.5-7c0.2-4.4,0.5-7.9,0.7-7.9c0.3,0,3.7,0.9,7.7,1.9c4,1.1,8.4,2.2,9.8,2.5
	l2.5,0.5l0.3,48.4c0.3,39.5,0.1,48.5-1,49.4c-0.7,0.6-4.7,1.2-8.8,1.4l-7.5,0.4l-0.6-6c-0.4-3.3-1.1-21.5-1.5-40.5l-0.9-34.5
	l-0.5,40.5l-0.5,40.5l-5.9,0.9c-7.3,1.1-8.1,0.3-8.9-9.1c-0.4-3.8-1.3-10.5-2-15.1l-1.4-8.2h6.1c3.3,0,6.8-0.5,7.6-1
	c1.2-0.8,1.6-4.7,1.8-23.3l0.3-22.3l-12.3-2.2c-6.8-1.2-15.1-2.4-18.4-2.7l-6.1-0.6l-0.7,3.8c-0.7,4.8-0.8,43.6,0,45.6
	c0.4,1.2,1.5,1.4,4.1,1l3.6-0.6l-0.7,17.3c-0.4,9.5-0.9,17.7-1.2,18.2c-0.3,0.4-4.5,0.8-9.3,0.8h-8.8l-0.6-12.8
	c-0.5-9-1.1-99.5-0.7-106.2c0-0.3,3.9,0.4,8.6,1.5l8.6,2L562.8,421.7z M661.3,415.9c2.9,2.6,3.3,3.5,3.1,7.8
	c-0.4,12-13.4,10.7-15-1.5C648.2,413.5,654.8,410.1,661.3,415.9z M502.9,442.5c1.2,8.8,2.9,26.1,3.7,38.5s2,28.5,2.6,35.8
	c0.8,8.7,0.9,13.6,0.2,14.3c-0.6,0.6-2.3,0.5-4.9-0.3l-3.9-1.3l-0.6-12c-0.4-6.6-1-27.5-1.4-46.5c-0.8-32.5-0.3-47.3,1.4-45.4
	C500.4,426.1,501.7,433.7,502.9,442.5z M635.3,432.8c0.5,0.5,1.2,3.7,1.5,7.1c0.7,7.6,2.6,7.6,3.3,0.1c0.5-5.5,1.4-6.6,3.9-5.1
	c1.2,0.8,1.4,7.6,1.2,43.8c-0.1,23.5-0.5,43.1-0.9,43.5c-0.8,0.8-16.1,3.3-16.6,2.7c-0.2-0.2-0.6-21.5-0.9-47.3l-0.5-46.8l4,0.5
	C632.5,431.6,634.8,432.3,635.3,432.8z M578.5,497.7c0.9,3,3.6,24.5,3.6,29v4.3h-5.9h-5.8l-0.5-16.2c-0.3-9-0.3-16.8-0.1-17.5
	C570.6,495.2,577.9,495.6,578.5,497.7z M510.1,534.1c0,0.5-2.2,0.9-4.9,0.9c-4.8,0-6.8-1-5.7-2.9
	C500.2,531.1,510.1,532.9,510.1,534.1z"/>
</svg>
